<svg xmlns="http://www.w3.org/2000/svg" viewBox="0 0 1200 700" preserveAspectRatio="xMidYMid slice" role="presentation" aria-hidden="true">
  <circle class="star" cx="488.6" cy="74.0" r="1.5" style="--twinkle:3.7s"/>
  <circle class="star" cx="901.5" cy="90.4" r="1.7" style="--twinkle:5.1s"/>
  <circle class="star" cx="644.8" cy="310.3" r="1.9" style="--twinkle:4.3s"/>
  <circle class="star" cx="731.3" cy="79.3" r="2.5" style="--twinkle:4.1s"/>
  <circle class="star" cx="470.2" cy="228.4" r="1.4" style="--twinkle:5.0s"/>
  <circle class="star" cx="1006.0" cy="118.4" r="2.5" style="--twinkle:4.6s"/>
  <circle class="star" cx="918.4" cy="160.1" r="1.8" style="--twinkle:3.8s"/>
  <circle class="star" cx="28.8" cy="75.2" r="2.6" style="--twinkle:4.6s"/>
  <circle class="star" cx="556.0" cy="298.1" r="2.0" style="--twinkle:5.9s"/>
  <circle class="star" cx="434.7" cy="79.1" r="2.5" style="--twinkle:3.5s"/>
  <circle class="star" cx="938.5" cy="200.5" r="2.6" style="--twinkle:5.8s"/>
  <circle class="star" cx="785.9" cy="21.9" r="1.2" style="--twinkle:4.4s"/>
  <circle class="star" cx="970.8" cy="36.0" r="1.8" style="--twinkle:3.3s"/>
  <circle class="star" cx="379.4" cy="11.8" r="1.7" style="--twinkle:4.6s"/>
  <circle class="star" cx="252.9" cy="261.9" r="1.3" style="--twinkle:3.6s"/>
  <circle class="star" cx="318.8" cy="139.3" r="2.3" style="--twinkle:4.1s"/>
  <circle class="star" cx="826.2" cy="305.1" r="1.4" style="--twinkle:5.6s"/>
  <circle class="star" cx="715.6" cy="249.1" r="2.1" style="--twinkle:4.2s"/>
  <circle class="star" cx="131.9" cy="56.0" r="1.4" style="--twinkle:3.5s"/>
  <circle class="star" cx="188.8" cy="76.4" r="2.0" style="--twinkle:5.3s"/>
  <circle class="star" cx="945.6" cy="280.8" r="1.4" style="--twinkle:5.5s"/>
  <circle class="star" cx="235.7" cy="33.2" r="1.6" style="--twinkle:4.8s"/>
  <circle class="star" cx="75.3" cy="79.2" r="1.8" style="--twinkle:5.5s"/>
  <circle class="star" cx="483.3" cy="142.5" r="1.7" style="--twinkle:3.3s"/>
  <circle class="star" cx="1040.3" cy="305.4" r="2.2" style="--twinkle:4.2s"/>
  <circle class="star" cx="535.0" cy="109.7" r="2.1" style="--twinkle:5.0s"/>
  <circle class="star" cx="380.4" cy="289.8" r="2.2" style="--twinkle:3.7s"/>
  <circle class="star" cx="958.8" cy="225.8" r="1.5" style="--twinkle:3.9s"/>
  <circle class="star" cx="891.7" cy="35.6" r="1.8" style="--twinkle:5.9s"/>
  <circle class="star" cx="317.2" cy="171.0" r="2.5" style="--twinkle:5.6s"/>
  <circle class="star" cx="934.3" cy="180.6" r="2.5" style="--twinkle:3.8s"/>
  <circle class="star" cx="1042.6" cy="141.0" r="2.1" style="--twinkle:4.8s"/>
  <circle class="star" cx="347.5" cy="227.0" r="2.0" style="--twinkle:6.0s"/>
  <circle class="star" cx="793.5" cy="150.8" r="1.7" style="--twinkle:5.7s"/>
  <circle class="star" cx="420.6" cy="223.5" r="2.2" style="--twinkle:5.9s"/>
  <circle class="star" cx="244.2" cy="222.8" r="1.4" style="--twinkle:4.9s"/>
  <circle class="star" cx="782.3" cy="247.8" r="2.4" style="--twinkle:3.7s"/>
  <circle class="star" cx="1018.2" cy="120.6" r="1.8" style="--twinkle:3.3s"/>
  <circle class="star" cx="636.8" cy="10.4" r="1.6" style="--twinkle:5.0s"/>
  <circle class="star" cx="887.2" cy="63.6" r="2.3" style="--twinkle:4.3s"/>
  <circle class="star" cx="258.1" cy="249.5" r="2.2" style="--twinkle:4.4s"/>
  <circle class="star" cx="636.0" cy="208.3" r="2.1" style="--twinkle:5.3s"/>
  <circle class="star" cx="912.0" cy="74.1" r="1.2" style="--twinkle:3.3s"/>
  <circle class="star" cx="376.7" cy="195.8" r="2.5" style="--twinkle:4.3s"/>
  <circle class="star" cx="448.3" cy="188.3" r="2.5" style="--twinkle:4.8s"/>
  <circle class="star" cx="362.4" cy="252.1" r="2.6" style="--twinkle:5.4s"/>
</svg>